<svg width="28" height="30" viewBox="0 0 28 30" fill="none" xmlns="http://www.w3.org/2000/svg">
<path d="M4.76443 3.85085C9.86504 -1.24976 18.1348 -1.24976 23.2354 3.85085C28.336 8.95147 28.336 17.2213 23.2354 22.3219L21.4549 24.0827C20.1427 25.3706 18.4399 27.0266 16.3462 29.0509C15.0377 30.316 12.962 30.3158 11.6539 29.0506L6.41723 23.9567C5.75909 23.3105 5.20819 22.7656 4.76443 22.3219C-0.336189 17.2213 -0.336189 8.95147 4.76443 3.85085ZM21.6443 5.44184C17.4224 1.2199 10.5774 1.2199 6.35541 5.44184C2.13349 9.66377 2.13349 16.5089 6.35541 20.7308L8.58603 22.9321C9.81438 24.1342 11.3585 25.6348 13.2181 27.4333C13.6541 27.8549 14.3461 27.8551 14.7821 27.4334L19.8745 22.4812C20.578 21.7907 21.1679 21.2072 21.6443 20.7308C25.8664 16.5089 25.8664 9.66377 21.6443 5.44184ZM13.9999 8.99683C16.4864 8.99683 18.5023 11.0126 18.5023 13.4992C18.5023 15.9857 16.4864 18.0014 13.9999 18.0014C11.5133 18.0014 9.49759 15.9857 9.49759 13.4992C9.49759 11.0126 11.5133 8.99683 13.9999 8.99683ZM13.9999 11.2468C12.7559 11.2468 11.7476 12.2552 11.7476 13.4992C11.7476 14.7431 12.7559 15.7514 13.9999 15.7514C15.2438 15.7514 16.2523 14.7431 16.2523 13.4992C16.2523 12.2552 15.2438 11.2468 13.9999 11.2468Z" fill="#282828"/>
</svg>
