<svg width="30" height="24" viewBox="0 0 30 24" fill="none" xmlns="http://www.w3.org/2000/svg">
<path d="M4.875 0H25.125C27.7245 0 29.8488 2.03467 29.9924 4.59837L30 4.875V19.125C30 21.7245 27.9653 23.8488 25.4016 23.9923L25.125 24H4.875C2.27546 24 0.151125 21.9653 0.0077101 19.4016L0 19.125V4.875C0 2.27545 2.03467 0.151125 4.59837 0.00770974L4.875 0H25.125H4.875ZM27.75 8.0595L15.524 14.4955C15.2429 14.6434 14.9147 14.6646 14.6202 14.559L14.4761 14.4955L2.25 8.061V19.125C2.25 20.5023 3.31067 21.6318 4.65971 21.7413L4.875 21.75H25.125C26.5023 21.75 27.6318 20.6893 27.7413 19.3402L27.75 19.125V8.0595ZM25.125 2.25H4.875C3.49775 2.25 2.36822 3.31066 2.2587 4.6597L2.25 4.875V5.5185L15 12.2287L27.75 5.517V4.875C27.75 3.49774 26.6894 2.36821 25.3403 2.2587L25.125 2.25Z" fill="#5C88BC"/>
</svg>
