<svg width="14" height="19" viewBox="0 0 14 19" fill="none" xmlns="http://www.w3.org/2000/svg">
<path d="M2.53958 1.16057L3.5607 0.852777C4.71789 0.503967 5.9543 1.06767 6.44981 2.17002L7.2388 3.92502C7.66116 4.86463 7.43856 5.96888 6.68519 6.67147L5.37767 7.89077C5.33944 7.92638 5.3152 7.97451 5.30942 8.02648C5.27066 8.37394 5.50621 9.05067 6.04889 9.99068C6.4436 10.6743 6.80077 11.1536 7.10484 11.4233C7.31667 11.6112 7.43331 11.6518 7.48301 11.637L9.24202 11.0992C10.2269 10.7981 11.2942 11.1571 11.8969 11.9923L13.0175 13.5455C13.7228 14.523 13.596 15.8716 12.7208 16.7005L11.9452 17.435C11.1083 18.2276 9.91691 18.5229 8.8068 18.2131C6.39696 17.5404 4.23632 15.5068 2.30093 12.1546C0.362848 8.7978 -0.317193 5.90637 0.3097 3.48106C0.596587 2.37114 1.44195 1.49142 2.53958 1.16057ZM2.91836 2.41722C2.25979 2.61573 1.75257 3.14356 1.58044 3.80952C1.05312 5.84959 1.65587 8.41236 3.43759 11.4984C5.21694 14.5802 7.13222 16.383 9.15969 16.9489C9.82574 17.1348 10.5405 16.9576 11.0427 16.482L11.8182 15.7476C12.2161 15.3708 12.2737 14.7578 11.9531 14.3134L10.8325 12.7603C10.5585 12.3807 10.0734 12.2175 9.62571 12.3544L7.86232 12.8935C6.83884 13.1986 5.90985 12.3748 4.91227 10.6469C4.24 9.48257 3.92667 8.58246 4.00504 7.88079C4.04564 7.51725 4.21502 7.18029 4.48252 6.93083L5.79006 5.71156C6.13254 5.39221 6.23369 4.89027 6.04171 4.46318L5.25272 2.70818C5.02747 2.20711 4.46548 1.95088 3.93949 2.10943L2.91836 2.41722Z" fill="#282828"/>
</svg>
